<svg style="background: rgb(255 , 255, 255); border-radius:100%;" width="170" height="48" viewBox="0 0 170 48" fill="none" xmlns="http://www.w3.org/2000/svg">
<g clip-path="url(#clip0_5246_6477)">
<path d="M23.0178 29.2536C24.1568 29.2536 25.1258 28.8638 25.8738 28.1011C26.6218 27.3553 26.9958 26.4231 26.9958 25.2705C26.9958 22.0332 25.7208 19.1519 23.1368 16.6095C20.5698 14.0671 17.4418 12.8129 13.7359 12.8129C10.0129 12.8129 6.81694 14.1349 4.07997 16.7959C1.35999 19.4739 0 22.7282 0 26.5417C0 30.3553 1.35999 33.5758 4.06297 36.2535C6.76593 38.9486 9.9789 40.2874 13.7529 40.2874C17.5268 40.2874 20.4848 39.6434 22.6438 38.3552C23.8508 37.5418 24.4458 36.6095 24.4458 35.5757C24.4458 33.5078 23.0348 32.3552 21.3518 32.3552C20.4848 32.3552 19.6008 32.6603 18.6658 33.2707C17.7308 33.8976 16.3369 34.2027 14.4499 34.2027C12.5799 34.2027 10.9819 33.7111 9.6219 32.7621C8.24494 31.8129 7.41194 30.6604 7.10594 29.2536H23.0178ZM18.3258 20.3383C19.6008 21.4061 20.3488 22.5756 20.5698 23.8976H7.10594C7.39494 22.5417 8.15993 21.3553 9.43494 20.3214C10.7269 19.3044 12.2059 18.796 13.8889 18.796C15.5719 18.796 17.0509 19.3044 18.3258 20.3383Z" fill="#1C1C1C"/>
<path d="M48.7401 31.9493C47.3462 33.4238 45.5951 34.1528 43.4533 34.1528C41.3283 34.1528 39.5262 33.39 38.0983 31.8815C36.6701 30.3391 35.9394 28.5594 35.9394 26.4916C35.9394 24.4238 36.6702 22.6441 38.1323 21.1696C39.5773 19.695 41.3791 18.9492 43.4873 18.9492C45.5951 18.9492 47.3462 19.6441 48.7401 21.0679C50.1173 22.4916 50.7973 24.2713 50.7973 26.4747C50.7973 28.6781 50.1173 30.4747 48.7401 31.9493ZM57.138 3.38983C57.138 2.49153 56.798 1.69492 56.118 1.01695C55.438 0.338983 54.6391 0 53.7212 0C52.8201 0 52.0212 0.338983 51.3412 1.01695C50.6612 1.69492 50.3212 2.49153 50.3212 3.38983V15.5594C48.383 13.678 45.9523 12.7627 43.1133 12.7627C39.3901 12.7627 36.1773 14.0679 33.5083 16.7458C30.7883 19.4238 29.4453 22.6781 29.4453 26.4916C29.4453 30.3221 30.7713 33.5765 33.3894 36.2545C36.0073 38.9493 39.1862 40.2884 42.9091 40.2884C45.748 40.3223 48.298 39.3561 50.5251 37.441C50.5251 38.1188 50.848 38.7627 51.4601 39.3561C52.0891 39.9834 52.837 40.2884 53.7551 40.2884C54.6562 40.2884 55.438 39.9492 56.118 39.2882C56.798 38.6104 57.138 37.7966 57.138 36.8985V3.38983Z" fill="#1C1C1C"/>
<path d="M69.1491 16.0156C69.1491 15.1173 68.8092 14.3037 68.1292 13.6427C67.4492 12.9647 66.6502 12.6257 65.7492 12.6257C64.831 12.6257 64.032 12.9647 63.352 13.6427C62.672 14.3037 62.332 15.1173 62.332 16.0156V26.4393C62.332 30.2529 63.726 33.4734 66.446 36.1511C69.1831 38.8291 72.5149 40.1683 76.3741 40.1683C80.2499 40.1683 83.5481 38.8462 86.2849 36.1852C88.9877 33.541 90.3477 30.3037 90.3477 26.4393V16.0156C90.3477 15.0834 90.0077 14.2868 89.3277 13.6088C88.6477 12.9647 87.8488 12.6257 86.9309 12.6257C86.0299 12.6257 85.2309 12.9647 84.5509 13.6427C83.8709 14.3037 83.5309 15.1173 83.5309 16.0156V26.4393C83.5309 28.541 82.8509 30.3037 81.4738 31.7783C80.097 33.253 78.4141 33.9817 76.357 33.9817C74.2999 33.9817 72.5831 33.253 71.206 31.7783C69.8292 30.3037 69.1491 28.541 69.1491 26.4393V16.0156Z" fill="#1C1C1C"/>
<path fill-rule="evenodd" clip-rule="evenodd" d="M116.041 5.08447H148.477C160.309 5.08447 169.999 14.7286 169.999 26.5422C169.999 38.3387 160.309 47.9999 148.477 47.9999H116.041C104.21 47.9999 94.5195 38.3387 94.5195 26.5422C94.5195 14.7286 104.21 5.08447 116.041 5.08447ZM126.361 16.7629C123.658 14.0849 120.309 12.7798 116.433 12.7798C112.54 12.7798 109.225 14.0849 106.505 16.729C103.768 19.407 102.425 22.6443 102.425 26.4918C102.425 30.3392 103.768 33.5935 106.488 36.2715C109.174 38.9663 112.489 40.3055 116.399 40.3055C120.309 40.3055 123.658 38.9663 126.361 36.2377C129.081 33.5426 130.441 30.2884 130.441 26.4918C130.441 22.6951 129.081 19.4409 126.361 16.7629ZM121.771 31.8986C120.343 33.407 118.541 34.1698 116.433 34.1698C114.325 34.1698 112.523 33.407 111.095 31.8986C109.65 30.3562 108.919 28.5765 108.919 26.5087C108.919 24.4409 109.65 22.6612 111.112 21.1867C112.574 19.7121 114.342 18.9663 116.45 18.9663C118.575 18.9663 120.343 19.7121 121.771 21.1867C123.216 22.6612 123.93 24.4409 123.93 26.5087C123.93 28.5765 123.216 30.3562 121.771 31.8986ZM155.074 36.9326C155.074 37.8307 155.397 38.6274 156.094 39.3055C156.757 39.9833 157.573 40.3222 158.474 40.3222C159.375 40.3222 160.191 39.9833 160.871 39.3055C161.551 38.6274 161.891 37.8307 161.891 36.9326V26.4918C161.891 22.6951 160.497 19.4409 157.777 16.7629C155.04 14.0849 151.708 12.7798 147.849 12.7798C143.973 12.7798 140.658 14.0849 137.955 16.729C135.235 19.407 133.875 22.6443 133.875 26.4918V36.9326C133.875 37.8645 134.215 38.6445 134.895 39.3055C135.575 39.9833 136.374 40.3222 137.292 40.3222C138.193 40.3222 138.992 39.9833 139.672 39.3055C140.352 38.6274 140.692 37.8307 140.692 36.9326V26.4918C140.692 24.407 141.372 22.6443 142.749 21.1697C144.126 19.6951 145.843 18.9663 147.883 18.9663C149.94 18.9663 151.64 19.6951 153.017 21.1697C154.394 22.6443 155.074 24.407 155.074 26.4918V36.9326Z" fill="#006AFF"/>
</g>
<defs>
<clipPath id="clip0_5246_6477">
<rect width="170" height="48" fill="white"/>
</clipPath>
</defs>
</svg>
